<svg xmlns="http://www.w3.org/2000/svg" viewBox="0 0 1200 420" width="1200" height="420" font-family="Inter, 'Segoe UI', Helvetica, Arial, sans-serif">
  <defs>
    <marker id="a" viewBox="0 0 10 10" refX="9" refY="5" markerWidth="7" markerHeight="7" orient="auto-start-reverse">
      <path d="M0 0 10 5 0 10z" fill="#71717A"/>
    </marker>
  </defs>
  <rect width="1200" height="420" fill="#09090B"/>
  <text x="48" y="56" fill="#A1A1AA" font-family="Consolas, 'Courier New', monospace" font-size="15" letter-spacing="3">STRUCTURE</text>
  <text x="48" y="100" fill="#FAFAFA" font-size="38" font-weight="800" letter-spacing="-1">CODE <tspan fill="#DFE104">LAYERS</tspan></text>

  <g font-family="Consolas, 'Courier New', monospace" font-size="21" font-weight="700">
    <rect x="48" y="150" width="190" height="90" fill="none" stroke="#3F3F46" stroke-width="2"/>
    <text x="70" y="190" fill="#FAFAFA">index.js</text>
    <rect x="278" y="150" width="190" height="90" fill="none" stroke="#3F3F46" stroke-width="2"/>
    <text x="300" y="190" fill="#FAFAFA">router.js</text>
    <rect x="508" y="150" width="190" height="90" fill="#DFE104"/>
    <text x="530" y="190" fill="#000">handlers/</text>
    <rect x="738" y="150" width="190" height="90" fill="#DFE104"/>
    <text x="760" y="190" fill="#000">services/</text>
    <rect x="968" y="150" width="184" height="90" fill="none" stroke="#3F3F46" stroke-width="2"/>
    <text x="990" y="190" fill="#FAFAFA">D1</text>
  </g>

  <g font-family="Consolas, 'Courier New', monospace" font-size="14" letter-spacing="2">
    <text x="70" y="218" fill="#A1A1AA">ENTRY</text>
    <text x="300" y="218" fill="#A1A1AA">MATCH ROUTE</text>
    <text x="530" y="218" fill="#000">HTTP ONLY</text>
    <text x="760" y="218" fill="#000">SQL ONLY</text>
    <text x="990" y="218" fill="#A1A1AA">SQLITE</text>
  </g>

  <g stroke="#71717A" stroke-width="2.5" fill="none" marker-end="url(#a)">
    <path d="M238 195 L274 195"/>
    <path d="M468 195 L504 195"/>
    <path d="M698 195 L734 195"/>
    <path d="M928 195 L964 195"/>
  </g>

  <g stroke="#71717A" stroke-width="2" stroke-dasharray="6 6">
    <path d="M603 240 L603 300"/>
    <path d="M833 240 L833 300"/>
  </g>
  <rect x="508" y="300" width="420" height="70" fill="none" stroke="#3F3F46" stroke-width="2"/>
  <text x="530" y="342" fill="#FAFAFA" font-family="Consolas, 'Courier New', monospace" font-size="21" font-weight="700">lib/</text>
  <text x="600" y="342" fill="#A1A1AA" font-size="18">auth · validate · detectBot</text>
</svg>
